<svg width="24" height="22" viewBox="0 0 24 22" fill="none" xmlns="http://www.w3.org/2000/svg">
<path fill-rule="evenodd" clip-rule="evenodd" d="M23.2207 11.2328C23.2207 5.28435 18.0714 0.461182 11.7207 0.461182C5.37003 0.461182 0.220703 5.28435 0.220703 11.2328C0.220703 16.6089 4.42539 21.0652 9.92383 21.874L9.92383 14.3474L7.00313 14.3474L7.00313 11.2328L9.92383 11.2328L9.92383 8.85964C9.92383 6.1605 11.6411 4.66835 14.2676 4.66835C15.526 4.66835 16.8423 4.87897 16.8423 4.87897L16.8423 7.53003L15.3915 7.53003C13.9637 7.53003 13.5171 8.36001 13.5171 9.21308L13.5171 11.2328L16.7063 11.2328L16.197 14.3474L13.5176 14.3474L13.5176 21.875C19.016 21.0666 23.2207 16.6104 23.2207 11.2328Z" fill="white"/>
</svg>
