<svg width="22" height="22" viewBox="0 0 22 22" fill="none" xmlns="http://www.w3.org/2000/svg">
<path d="M20.0104 0.125046L1.85845 0.125046C0.866598 0.125046 0 0.838715 0 1.81892L0 20.0112C0 20.9967 0.866598 21.875 1.85845 21.875L20.0051 21.875C21.0023 21.875 21.7499 20.9909 21.7499 20.0112L21.7499 1.81892C21.7557 0.838715 21.0023 0.125046 20.0104 0.125046ZM6.74199 18.2547L3.62612 18.2547L3.62612 8.56674L6.74199 8.56674L6.74199 18.2547ZM5.29183 7.09376H5.2695C4.27231 7.09376 3.62661 6.35145 3.62661 5.42222C3.62661 4.476 4.2893 3.75117 5.30883 3.75117C6.32835 3.75117 6.95221 4.47066 6.97454 5.42222C6.97406 6.35145 6.32835 7.09376 5.29183 7.09376ZM18.1296 18.2547L15.0138 18.2547L15.0138 12.9575C15.0138 11.6884 14.5603 10.8213 13.433 10.8213C12.5717 10.8213 12.062 11.4039 11.8353 11.9715C11.7503 12.1754 11.7275 12.4531 11.7275 12.7366L11.7275 18.2547L8.61161 18.2547L8.61161 8.56674L11.7275 8.56674L11.7275 9.91494C12.1809 9.26924 12.8893 8.34001 14.5375 8.34001C16.5829 8.34001 18.1301 9.68822 18.1301 12.5948L18.1296 18.2547Z" fill="white"/>
</svg>
