<svg width="23" height="18" viewBox="0 0 23 18" fill="none" xmlns="http://www.w3.org/2000/svg">
<path d="M22.2211 2.74417C21.4156 3.09388 20.5635 3.32427 19.6915 3.42807C20.6079 2.89185 21.297 2.03996 21.6297 1.03219C20.7633 1.53845 19.817 1.89366 18.8313 2.08262C18.4162 1.64793 17.9171 1.30213 17.3641 1.06622C16.8111 0.830317 16.2159 0.70924 15.6147 0.71035C13.1804 0.71035 11.2104 2.6503 11.2104 5.04172C11.2087 5.37436 11.2468 5.70601 11.324 6.02958C9.57849 5.9478 7.86923 5.50283 6.30563 4.72313C4.74202 3.94342 3.3585 2.84616 2.24358 1.50153C1.85244 2.16045 1.64558 2.91226 1.64463 3.67839C1.64463 5.18029 2.42877 6.50786 3.61281 7.28563C2.9113 7.26899 2.22416 7.08346 1.60974 6.74477V6.79841C1.60974 8.89928 3.1306 10.647 5.14351 11.0449C4.76499 11.1457 4.37493 11.1968 3.98318 11.1968C3.70521 11.1973 3.42787 11.1704 3.15521 11.1164C3.71479 12.8373 5.34346 14.0889 7.27273 14.1246C5.70506 15.3319 3.78038 15.9845 1.80119 15.9797C1.44987 15.9791 1.09889 15.9582 0.75 15.9171C2.76344 17.2018 5.1039 17.8814 7.4928 17.8749C15.6053 17.8749 20.0373 11.2728 20.0373 5.54682C20.0373 5.35909 20.0323 5.17135 20.0234 4.98808C20.8836 4.37662 21.6278 3.61675 22.2211 2.74417Z" fill="white"/>
</svg>
